<?xml version="1.0" encoding="UTF-8"?>
<svg width="700pt" height="700pt" version="1.1" viewBox="0 0 700 700" xmlns="http://www.w3.org/2000/svg" xmlns:xlink="http://www.w3.org/1999/xlink">
 <defs>
  <symbol id="t" overflow="visible">
   <path d="m0.78125-0.046875c-0.042969 0.023438-0.085938 0.039062-0.125 0.046875-0.042969 0.0078125-0.089844 0.015625-0.14062 0.015625-0.13672 0-0.24609-0.035156-0.32812-0.10938-0.085938-0.082031-0.125-0.19141-0.125-0.32812 0-0.13281 0.039062-0.24219 0.125-0.32812 0.082031-0.082031 0.19141-0.125 0.32812-0.125 0.050781 0 0.097656 0.007812 0.14062 0.015625 0.039062 0.011719 0.082031 0.027344 0.125 0.046875v0.1875c-0.042969-0.03125-0.085938-0.050781-0.125-0.0625-0.03125-0.007812-0.074219-0.015625-0.125-0.015625-0.074219 0-0.13672 0.027344-0.1875 0.078125-0.042969 0.042969-0.0625 0.10938-0.0625 0.20312 0 0.085937 0.019531 0.15234 0.0625 0.20312 0.050781 0.054688 0.11328 0.078125 0.1875 0.078125 0.050781 0 0.09375-0.003906 0.125-0.015625 0.039062-0.019531 0.082031-0.039062 0.125-0.0625z"/>
  </symbol>
  <symbol id="d" overflow="visible">
   <path d="m0.57812-0.46875c-0.023437-0.007812-0.042969-0.015625-0.0625-0.015625h-0.046875c-0.054688 0-0.09375 0.015625-0.125 0.046875s-0.046875 0.078125-0.046875 0.14062v0.29688h-0.20312v-0.64062h0.20312v0.10938c0.03125-0.039062 0.0625-0.070312 0.09375-0.09375 0.03125-0.019531 0.070313-0.03125 0.125-0.03125h0.015625 0.046875z"/>
  </symbol>
  <symbol id="c" overflow="visible">
   <path d="m0.73438-0.32812v0.0625h-0.46875c0 0.054687 0.015625 0.089844 0.046875 0.10938 0.03125 0.023438 0.070312 0.03125 0.125 0.03125 0.039062 0 0.082031-0.003906 0.125-0.015625 0.050781-0.007813 0.097656-0.03125 0.14062-0.0625v0.17188c-0.042969 0.011719-0.089844 0.023438-0.14062 0.03125-0.054688 0.0078125-0.10156 0.015625-0.14062 0.015625-0.11719 0-0.21094-0.023438-0.28125-0.078125-0.0625-0.0625-0.09375-0.14453-0.09375-0.25 0-0.11328 0.03125-0.19531 0.09375-0.25 0.0625-0.0625 0.14844-0.09375 0.26562-0.09375 0.10156 0 0.17969 0.03125 0.23438 0.09375 0.0625 0.0625 0.09375 0.14062 0.09375 0.23438zm-0.20312-0.0625c0-0.039063-0.015625-0.070313-0.046875-0.09375-0.023437-0.019531-0.046875-0.03125-0.078125-0.03125-0.042969 0-0.078125 0.011719-0.10938 0.03125-0.023437 0.023437-0.03125 0.054687-0.03125 0.09375z"/>
  </symbol>
  <symbol id="g" overflow="visible">
   <path d="m0.39062-0.28125c-0.042969 0-0.078125 0.007812-0.10938 0.015625-0.023438 0.011719-0.03125 0.03125-0.03125 0.0625s0.007812 0.054687 0.03125 0.0625c0.019531 0.011719 0.046875 0.015625 0.078125 0.015625s0.054687-0.007812 0.078125-0.03125c0.03125-0.03125 0.046875-0.066406 0.046875-0.10938v-0.015625zm0.3125-0.078125v0.35938h-0.21875v-0.09375c-0.023437 0.042969-0.054687 0.074219-0.09375 0.09375-0.03125 0.0078125-0.070313 0.015625-0.10938 0.015625-0.074219 0-0.13281-0.015625-0.17188-0.046875-0.042969-0.039062-0.0625-0.09375-0.0625-0.15625 0-0.082031 0.023438-0.14062 0.078125-0.17188 0.050781-0.03125 0.13281-0.046875 0.25-0.046875h0.10938v-0.015625c0-0.03125-0.011719-0.050781-0.03125-0.0625-0.023437-0.019531-0.0625-0.03125-0.125-0.03125-0.042969 0-0.085937 0.007813-0.125 0.015625-0.03125 0-0.0625 0.011719-0.09375 0.03125v-0.15625c0.039063-0.007812 0.082031-0.015625 0.125-0.015625 0.050781-0.007813 0.097656-0.015625 0.14062-0.015625 0.11328 0 0.19531 0.027344 0.25 0.078125 0.050781 0.042969 0.078125 0.11719 0.078125 0.21875z"/>
  </symbol>
  <symbol id="b" overflow="visible">
   <path d="m0.32812-0.82812v0.1875h0.20312v0.14062h-0.20312v0.28125c0 0.03125 0.003906 0.054688 0.015625 0.0625 0.007812 0.011719 0.03125 0.015625 0.0625 0.015625h0.10938v0.14062h-0.17188c-0.085938 0-0.14062-0.015625-0.17188-0.046875s-0.046875-0.085937-0.046875-0.17188v-0.28125h-0.10938v-0.14062h0.10938v-0.1875z"/>
  </symbol>
  <symbol id="k" overflow="visible">
   <path d="m0.53125-0.54688v-0.34375h0.20312v0.89062h-0.20312v-0.09375c-0.03125 0.042969-0.0625 0.074219-0.09375 0.09375-0.03125 0.0078125-0.070312 0.015625-0.10938 0.015625-0.085937 0-0.15234-0.03125-0.20312-0.09375-0.054688-0.0625-0.078125-0.14062-0.078125-0.23438 0-0.10156 0.023438-0.1875 0.078125-0.25 0.050781-0.0625 0.11719-0.09375 0.20312-0.09375 0.039063 0 0.078125 0.011719 0.10938 0.03125 0.03125 0.011719 0.0625 0.039062 0.09375 0.078125zm-0.125 0.42188c0.039062 0 0.070312-0.015625 0.09375-0.046875 0.019531-0.039063 0.03125-0.085937 0.03125-0.14062 0-0.0625-0.011719-0.10938-0.03125-0.14062-0.023438-0.03125-0.054688-0.046875-0.09375-0.046875-0.054688 0-0.089844 0.015625-0.10938 0.046875-0.023437 0.03125-0.03125 0.078125-0.03125 0.14062 0 0.054688 0.007813 0.10156 0.03125 0.14062 0.019531 0.03125 0.054687 0.046875 0.10938 0.046875z"/>
  </symbol>
  <symbol id="j" overflow="visible">
   <path d="m0.4375-0.125c0.039062 0 0.070312-0.015625 0.09375-0.046875 0.03125-0.039063 0.046875-0.085937 0.046875-0.14062 0-0.0625-0.015625-0.10938-0.046875-0.14062-0.023438-0.03125-0.054688-0.046875-0.09375-0.046875-0.042969 0-0.078125 0.015625-0.10938 0.046875-0.023437 0.03125-0.03125 0.078125-0.03125 0.14062 0 0.054688 0.007813 0.10156 0.03125 0.14062 0.03125 0.03125 0.066406 0.046875 0.10938 0.046875zm-0.14062-0.42188c0.03125-0.039063 0.0625-0.066406 0.09375-0.078125 0.039063-0.019531 0.082031-0.03125 0.125-0.03125 0.082031 0 0.14453 0.03125 0.1875 0.09375 0.050781 0.0625 0.078125 0.14844 0.078125 0.25 0 0.09375-0.027344 0.17188-0.078125 0.23438-0.042969 0.0625-0.10547 0.09375-0.1875 0.09375-0.042969 0-0.085937-0.0078125-0.125-0.015625-0.03125-0.019531-0.0625-0.050781-0.09375-0.09375v0.09375h-0.20312v-0.89062h0.20312z"/>
  </symbol>
  <symbol id="f" overflow="visible">
   <path d="m0.015625-0.64062h0.20312l0.17188 0.4375 0.14062-0.4375h0.21875l-0.28125 0.70312c-0.023438 0.070312-0.054688 0.11719-0.09375 0.14062-0.03125 0.03125-0.078125 0.046875-0.14062 0.046875h-0.10938v-0.125h0.0625c0.03125 0 0.050781-0.011719 0.0625-0.03125 0.019531-0.011719 0.035156-0.027344 0.046875-0.046875v-0.015625z"/>
  </symbol>
  <symbol id="i" overflow="visible">
   <path d="m0.10938-0.85938h0.21875v0.85938h-0.21875z"/>
  </symbol>
  <symbol id="e" overflow="visible">
   <path d="m0.60938-0.625v0.17188c-0.023437-0.019531-0.046875-0.035156-0.078125-0.046875-0.03125-0.007812-0.0625-0.015625-0.09375-0.015625-0.054688 0-0.09375 0.023437-0.125 0.0625-0.03125 0.03125-0.046875 0.078125-0.046875 0.14062 0 0.054688 0.015625 0.10156 0.046875 0.14062 0.03125 0.03125 0.070312 0.046875 0.125 0.046875 0.039062 0 0.070312-0.003906 0.09375-0.015625 0.03125-0.007813 0.054688-0.023437 0.078125-0.046875v0.17188c-0.03125 0.011719-0.0625 0.015625-0.09375 0.015625-0.03125 0.0078125-0.0625 0.015625-0.09375 0.015625-0.11719 0-0.21094-0.023438-0.28125-0.078125-0.0625-0.0625-0.09375-0.14453-0.09375-0.25 0-0.11328 0.03125-0.19531 0.09375-0.25 0.070313-0.0625 0.16406-0.09375 0.28125-0.09375 0.03125 0 0.0625 0.007812 0.09375 0.015625 0.03125 0 0.0625 0.007813 0.09375 0.015625z"/>
  </symbol>
  <symbol id="a" overflow="visible">
   <path d="m0.40625-0.51562c-0.054688 0-0.089844 0.023437-0.10938 0.0625-0.023437 0.03125-0.03125 0.078125-0.03125 0.14062 0 0.054688 0.007813 0.10156 0.03125 0.14062 0.019531 0.03125 0.054687 0.046875 0.10938 0.046875 0.039062 0 0.070312-0.015625 0.09375-0.046875 0.03125-0.039063 0.046875-0.085937 0.046875-0.14062 0-0.0625-0.015625-0.10938-0.046875-0.14062-0.023438-0.039063-0.054688-0.0625-0.09375-0.0625zm0-0.14062c0.10156 0 0.1875 0.03125 0.25 0.09375 0.0625 0.054688 0.09375 0.13672 0.09375 0.25 0 0.10547-0.03125 0.1875-0.09375 0.25-0.0625 0.054688-0.14844 0.078125-0.25 0.078125-0.11719 0-0.20312-0.023438-0.26562-0.078125-0.0625-0.0625-0.09375-0.14453-0.09375-0.25 0-0.11328 0.03125-0.19531 0.09375-0.25 0.0625-0.0625 0.14844-0.09375 0.26562-0.09375z"/>
  </symbol>
  <symbol id="h" overflow="visible">
   <path d="m0.75-0.39062v0.39062h-0.21875v-0.29688-0.10938c0-0.019531-0.007812-0.035156-0.015625-0.046875 0-0.019531-0.011719-0.03125-0.03125-0.03125-0.011719-0.007813-0.027344-0.015625-0.046875-0.015625-0.042969 0-0.078125 0.015625-0.10938 0.046875-0.023437 0.03125-0.03125 0.078125-0.03125 0.14062v0.3125h-0.20312v-0.64062h0.20312v0.09375c0.03125-0.039063 0.0625-0.066406 0.09375-0.078125 0.039063-0.019531 0.082031-0.03125 0.125-0.03125 0.070313 0 0.12891 0.027344 0.17188 0.078125 0.039062 0.042969 0.0625 0.10547 0.0625 0.1875z"/>
  </symbol>
  <symbol id="s" overflow="visible">
   <path d="m0.10938-0.85938h0.59375v0.17188h-0.375v0.15625h0.35938v0.17188h-0.35938v0.35938h-0.21875z"/>
  </symbol>
  <symbol id="r" overflow="visible">
   <path d="m0.51562-0.89062v0.14062h-0.10938c-0.03125 0-0.054688 0.007812-0.0625 0.015625-0.011719 0.011719-0.015625 0.027344-0.015625 0.046875v0.046875h0.17188v0.14062h-0.17188v0.5h-0.20312v-0.5h-0.10938v-0.14062h0.10938v-0.046875c0-0.070312 0.015625-0.125 0.046875-0.15625 0.039063-0.03125 0.10156-0.046875 0.1875-0.046875z"/>
  </symbol>
  <symbol id="q" overflow="visible">
   <path d="m0.6875-0.53125c0.03125-0.039062 0.0625-0.070312 0.09375-0.09375 0.039062-0.019531 0.082031-0.03125 0.125-0.03125 0.070312 0 0.125 0.027344 0.15625 0.078125 0.039062 0.042969 0.0625 0.10547 0.0625 0.1875v0.39062h-0.20312v-0.32812-0.015625-0.03125c0-0.039062-0.007813-0.070312-0.015625-0.09375-0.011719-0.019531-0.03125-0.03125-0.0625-0.03125-0.042969 0-0.074219 0.015625-0.09375 0.046875-0.023438 0.03125-0.03125 0.078125-0.03125 0.14062v0.3125h-0.20312v-0.32812c0-0.070313-0.011719-0.11719-0.03125-0.14062-0.011719-0.019531-0.03125-0.03125-0.0625-0.03125s-0.0625 0.015625-0.09375 0.046875c-0.023437 0.03125-0.03125 0.078125-0.03125 0.14062v0.3125h-0.20312v-0.64062h0.20312v0.09375c0.03125-0.03125 0.0625-0.054687 0.09375-0.078125 0.03125-0.019531 0.066406-0.03125 0.10938-0.03125 0.039062 0 0.078125 0.011719 0.10938 0.03125 0.039063 0.023438 0.066406 0.054688 0.078125 0.09375z"/>
  </symbol>
  <symbol id="p" overflow="visible">
   <path d="m0.75-0.39062v0.39062h-0.21875v-0.29688-0.10938c0-0.019531-0.007812-0.035156-0.015625-0.046875 0-0.019531-0.011719-0.03125-0.03125-0.03125-0.011719-0.007813-0.027344-0.015625-0.046875-0.015625-0.042969 0-0.078125 0.015625-0.10938 0.046875-0.023437 0.03125-0.03125 0.078125-0.03125 0.14062v0.3125h-0.20312v-0.89062h0.20312v0.34375c0.03125-0.039063 0.0625-0.066406 0.09375-0.078125 0.039063-0.019531 0.082031-0.03125 0.125-0.03125 0.070313 0 0.12891 0.027344 0.17188 0.078125 0.039062 0.042969 0.0625 0.10547 0.0625 0.1875z"/>
  </symbol>
  <symbol id="o" overflow="visible">
   <path d="m0.10938-0.85938h0.25l0.3125 0.59375v-0.59375h0.20312v0.85938h-0.25l-0.3125-0.59375v0.59375h-0.20312z"/>
  </symbol>
  <symbol id="n" overflow="visible">
   <path d="m0.09375-0.25v-0.39062h0.20312v0.0625 0.125 0.10938 0.10938c0 0.023437 0.003906 0.039063 0.015625 0.046875 0.007812 0.023438 0.019531 0.039062 0.03125 0.046875h0.046875c0.039063 0 0.070313-0.015625 0.09375-0.046875 0.03125-0.03125 0.046875-0.078125 0.046875-0.14062v-0.3125h0.20312v0.64062h-0.20312v-0.09375c-0.03125 0.042969-0.070312 0.074219-0.10938 0.09375-0.03125 0.0078125-0.070313 0.015625-0.10938 0.015625-0.074219 0-0.13281-0.019531-0.17188-0.0625-0.03125-0.050781-0.046875-0.11719-0.046875-0.20312z"/>
  </symbol>
  <symbol id="m" overflow="visible">
   <path d="m0.10938-0.85938h0.35938c0.11328 0 0.19531 0.027344 0.25 0.078125 0.0625 0.054688 0.09375 0.12109 0.09375 0.20312 0 0.09375-0.03125 0.16797-0.09375 0.21875-0.054688 0.042969-0.13672 0.0625-0.25 0.0625h-0.14062v0.29688h-0.21875zm0.21875 0.17188v0.23438h0.125c0.039063 0 0.070313-0.007813 0.09375-0.03125 0.019531-0.019531 0.03125-0.050781 0.03125-0.09375 0-0.039063-0.011719-0.066406-0.03125-0.078125-0.023437-0.019531-0.054687-0.03125-0.09375-0.03125z"/>
  </symbol>
  <symbol id="l" overflow="visible">
   <path d="m0.09375-0.64062h0.20312v0.625c0 0.09375-0.023437 0.16016-0.0625 0.20312-0.042969 0.039062-0.10156 0.0625-0.17188 0.0625h-0.09375v-0.125h0.03125c0.039062 0 0.066406-0.011719 0.078125-0.03125 0.0078125-0.023438 0.015625-0.058594 0.015625-0.10938zm0-0.25h0.20312v0.17188h-0.20312z"/>
  </symbol>
 </defs>
 <g>
  <path d="m590.59 493.01-132.39-132.39c12.227-14.84 22.191-31.289 29.727-49.094 10.43-24.664 15.727-50.867 15.727-77.84s-5.2969-53.176-15.727-77.84c-10.078-23.824-24.5-45.195-42.84-63.559-18.363-18.363-39.738-32.785-63.559-42.84-24.664-10.43-50.867-15.727-77.84-15.727s-53.176 5.2969-77.84 15.727c-23.824 10.078-45.195 24.5-63.559 42.84-18.363 18.363-32.785 39.738-42.84 63.559-10.43 24.664-15.727 50.867-15.727 77.84s5.2969 53.176 15.727 77.84c10.078 23.824 24.5 45.195 42.84 63.559 18.363 18.363 39.738 32.785 63.559 42.84 24.664 10.43 50.867 15.727 77.84 15.727s53.176-5.2969 77.84-15.727c17.805-7.5352 34.254-17.5 49.094-29.727l132.39 132.39c3.8047 3.8047 8.7969 5.7148 13.789 5.7148 4.9922 0 9.9883-1.9141 13.789-5.7148 7.6289-7.6055 7.6289-19.973 0-27.578zm-224.28-111.02c-19.832 8.375-40.902 12.648-62.648 12.648s-42.816-4.2461-62.648-12.648c-19.156-8.0977-36.375-19.715-51.172-34.512-14.793-14.793-26.391-32.012-34.512-51.172-8.375-19.832-12.648-40.902-12.648-62.648s4.2461-42.816 12.648-62.648c8.0977-19.156 19.715-36.375 34.512-51.172 14.793-14.793 32.012-26.391 51.172-34.512 19.832-8.375 40.902-12.648 62.648-12.648s42.816 4.2461 62.648 12.648c19.156 8.0977 36.375 19.715 51.172 34.512 14.793 14.793 26.391 32.012 34.512 51.172 8.375 19.832 12.648 40.902 12.648 62.648s-4.2461 42.816-12.648 62.648c-8.0977 19.156-19.715 36.375-34.512 51.172-14.793 14.797-32.016 26.395-51.172 34.512z"/>
  <use x="70" y="563.5" xlink:href="#t"/>
  <use x="70.855469" y="563.5" xlink:href="#d"/>
  <use x="71.429687" y="563.5" xlink:href="#c"/>
  <use x="72.222656" y="563.5" xlink:href="#g"/>
  <use x="73.011719" y="563.5" xlink:href="#b"/>
  <use x="73.566406" y="563.5" xlink:href="#c"/>
  <use x="74.359375" y="563.5" xlink:href="#k"/>
  <use x="75.601562" y="563.5" xlink:href="#j"/>
  <use x="76.433594" y="563.5" xlink:href="#f"/>
  <use x="77.601562" y="563.5" xlink:href="#i"/>
  <use x="78.035156" y="563.5" xlink:href="#e"/>
  <use x="78.726562" y="563.5" xlink:href="#a"/>
  <use x="79.53125" y="563.5" xlink:href="#h"/>
  <use x="80.765625" y="563.5" xlink:href="#s"/>
  <use x="81.5625" y="563.5" xlink:href="#g"/>
  <use x="82.351562" y="563.5" xlink:href="#e"/>
  <use x="83.042969" y="563.5" xlink:href="#b"/>
  <use x="83.597656" y="563.5" xlink:href="#a"/>
  <use x="84.402344" y="563.5" xlink:href="#d"/>
  <use x="84.976562" y="563.5" xlink:href="#f"/>
  <use x="70" y="564.667969" xlink:href="#r"/>
  <use x="70.507812" y="564.667969" xlink:href="#d"/>
  <use x="71.082031" y="564.667969" xlink:href="#a"/>
  <use x="71.882812" y="564.667969" xlink:href="#q"/>
  <use x="73.507812" y="564.667969" xlink:href="#b"/>
  <use x="74.0625" y="564.667969" xlink:href="#p"/>
  <use x="74.894531" y="564.667969" xlink:href="#c"/>
  <use x="76.09375" y="564.667969" xlink:href="#o"/>
  <use x="77.070312" y="564.667969" xlink:href="#a"/>
  <use x="77.871094" y="564.667969" xlink:href="#n"/>
  <use x="78.699219" y="564.667969" xlink:href="#h"/>
  <use x="79.9375" y="564.667969" xlink:href="#m"/>
  <use x="80.792969" y="564.667969" xlink:href="#d"/>
  <use x="81.367188" y="564.667969" xlink:href="#a"/>
  <use x="82.167969" y="564.667969" xlink:href="#l"/>
  <use x="82.570312" y="564.667969" xlink:href="#c"/>
  <use x="83.359375" y="564.667969" xlink:href="#e"/>
  <use x="84.050781" y="564.667969" xlink:href="#b"/>
 </g>
</svg>
